<?xml version="1.0" standalone="no"?>
<!DOCTYPE svg PUBLIC "-//W3C//DTD SVG 20010904//EN"
 "http://www.w3.org/TR/2001/REC-SVG-20010904/DTD/svg10.dtd">
<svg version="1.0" xmlns="http://www.w3.org/2000/svg"
 width="595.000000pt" height="396.000000pt" viewBox="0 0 595.000000 396.000000"
 preserveAspectRatio="xMidYMid meet">

<g transform="translate(0.000000,396.000000) scale(0.100000,-0.100000)"
fill="#000000" stroke="none">
<path d="M0 1980 l0 -1980 2975 0 2975 0 0 1980 0 1980 -2131 0 c-1417 0
-2128 -3 -2124 -10 3 -5 -1 -10 -10 -10 -9 0 -14 4 -11 9 4 6 -331 10 -834 10
l-840 2 0 -1981z m1765 1940 c3 -6 -1 -7 -9 -4 -18 7 -21 14 -7 14 6 0 13 -4
16 -10z m-565 -24 c0 -2 -7 -7 -16 -10 -8 -3 -12 -2 -9 4 6 10 25 14 25 6z
m-110 -71 c0 -2 -9 -9 -20 -15 -12 -6 -20 -7 -20 -1 0 5 8 12 18 14 9 3 18 5
20 6 1 0 2 -1 2 -4z m-50 -35 c11 -7 12 -10 2 -10 -8 0 -21 -8 -30 -18 -10
-10 -14 -13 -10 -7 4 7 5 15 2 18 -7 7 4 27 14 27 4 0 14 -5 22 -10z m990 -60
c0 -15 -5 -12 -26 11 -19 22 -19 22 4 10 12 -6 22 -16 22 -21z m1235 17 c11
-1 25 -6 30 -9 16 -9 78 -21 108 -20 15 0 25 -4 22 -9 -4 -5 2 -9 13 -9 11 0
51 -10 90 -23 39 -13 69 -19 66 -15 -8 13 8 9 26 -7 21 -19 130 -67 130 -57 0
4 4 2 8 -4 4 -6 43 -30 87 -53 44 -24 88 -49 97 -58 9 -8 22 -12 29 -7 7 4 10
3 5 -4 -4 -6 14 -25 41 -43 27 -18 50 -35 53 -39 20 -23 73 -59 81 -54 5 3 9
-2 9 -12 0 -11 6 -15 18 -12 11 3 19 0 19 -8 0 -7 -5 -10 -11 -7 -6 4 -2 -3 8
-16 15 -16 22 -19 29 -9 6 10 7 8 4 -4 -6 -18 25 -52 38 -41 4 5 5 2 1 -5 -7
-12 31 -34 45 -26 3 2 6 -3 6 -11 0 -9 -5 -12 -12 -7 -6 4 -1 -2 12 -13 13
-12 23 -26 23 -32 0 -6 8 -17 17 -24 11 -10 14 -10 9 -1 -14 24 2 12 19 -14
12 -18 13 -24 4 -20 -8 4 0 -4 16 -18 17 -14 29 -33 27 -41 -1 -7 6 -19 18
-25 11 -6 19 -14 18 -18 -4 -11 73 -144 80 -138 3 4 0 12 -6 18 -7 7 -12 17
-12 22 0 6 7 1 15 -12 9 -12 15 -27 14 -34 -3 -26 1 -39 11 -33 6 4 10 -6 10
-22 0 -22 2 -25 10 -13 7 12 10 8 10 -15 0 -36 14 -60 29 -51 6 4 11 3 11 -3
0 -5 -4 -12 -9 -16 -10 -6 7 -64 31 -107 7 -13 13 -25 13 -28 8 -49 18 -80 24
-76 4 3 6 -6 3 -21 -4 -20 -2 -24 9 -18 8 5 11 5 7 0 -4 -4 -2 -15 5 -23 10
-13 9 -14 -1 -8 -10 6 -11 1 -6 -21 4 -15 10 -30 13 -33 3 -3 6 -18 7 -35 0
-16 7 -79 14 -140 9 -76 10 -157 5 -260 -4 -82 -8 -166 -8 -185 -1 -19 -5 -37
-9 -40 -3 -3 -8 -23 -10 -45 -2 -22 -7 -45 -10 -50 -12 -21 -20 -78 -10 -71 6
4 8 -2 4 -16 -3 -14 -7 -17 -10 -9 -2 7 -17 -24 -32 -70 -15 -46 -41 -115 -59
-153 -21 -47 -28 -73 -21 -80 14 -14 12 -23 -5 -23 -8 0 -12 5 -9 11 3 6 -2 2
-10 -9 -9 -11 -14 -25 -11 -33 2 -7 1 -11 -4 -8 -11 7 -23 -22 -15 -35 3 -5 0
-8 -8 -7 -8 2 -12 -5 -10 -19 2 -15 -4 -23 -18 -28 -13 -4 -19 -12 -16 -21 3
-8 2 -13 -3 -9 -5 3 -25 -21 -45 -52 -19 -32 -45 -69 -58 -82 -13 -14 -15 -19
-5 -12 11 9 17 10 17 3 0 -15 -35 -33 -45 -24 -4 4 -5 -2 -3 -13 1 -11 -2 -20
-8 -20 -18 0 -100 -93 -98 -110 1 -9 -5 -14 -19 -12 -12 1 -22 -3 -22 -10 0
-13 -25 -42 -25 -29 0 12 -85 -64 -85 -77 -1 -7 -6 -11 -13 -9 -7 1 -36 -15
-65 -37 -29 -21 -62 -44 -75 -50 -13 -7 -20 -17 -16 -24 4 -7 4 -9 0 -5 -4 3
-60 -20 -124 -52 -65 -32 -128 -61 -142 -65 -14 -4 -43 -15 -65 -25 -81 -34
-223 -70 -355 -89 -105 -15 -421 -16 -500 -2 -154 28 -386 89 -415 110 -5 4
-17 7 -25 6 -8 0 -23 7 -32 15 -9 9 -34 22 -55 29 -21 8 -41 18 -44 23 -4 6
-18 11 -32 11 -14 1 -23 5 -20 9 2 5 -9 14 -24 20 -15 7 -37 21 -47 30 -11 10
-25 18 -30 18 -6 0 -24 11 -40 25 -16 13 -34 22 -40 18 -6 -3 -8 -3 -4 2 10
10 -62 66 -75 58 -5 -3 -7 -1 -4 4 4 6 0 16 -8 23 -8 7 -15 10 -15 6 0 -4 -19
14 -42 38 -22 25 -45 43 -50 40 -4 -3 -8 0 -8 7 0 21 -42 59 -64 59 -13 0 -17
3 -9 8 15 10 -9 44 -28 40 -8 -2 -13 4 -11 14 2 16 -13 32 -33 33 -5 0 -9 8
-7 16 1 9 -11 31 -27 48 -17 18 -30 35 -31 39 -1 4 -8 6 -16 6 -8 -1 -14 2
-14 7 0 5 5 9 10 9 6 0 3 11 -7 24 -10 13 -22 21 -27 18 -5 -3 -6 2 -3 12 4
10 -1 24 -13 36 -11 11 -18 20 -15 20 7 0 -20 50 -40 75 -14 17 -16 18 -11 2
4 -11 2 -16 -5 -11 -6 3 -8 15 -6 26 7 26 -12 80 -26 71 -6 -4 -8 0 -4 10 4
10 -4 28 -19 47 -14 16 -23 36 -21 42 3 8 6 7 6 -4 1 -9 5 -19 11 -23 5 -3 5
7 -1 25 -6 16 -15 28 -19 25 -4 -3 -6 4 -3 15 3 11 1 20 -5 20 -5 0 -13 23
-16 52 -6 40 -10 49 -18 38 -8 -12 -9 -11 -4 4 9 26 -16 139 -26 123 -5 -7 -6
-1 -3 14 4 15 2 53 -5 85 -6 33 -13 122 -16 199 -2 77 -9 156 -14 175 -6 19
-9 42 -9 50 1 8 6 -5 13 -30 l12 -45 7 85 c4 47 4 96 2 110 -4 17 -3 19 2 8 6
-12 14 11 26 72 9 49 28 122 41 162 17 52 21 77 14 86 -6 7 -8 15 -4 19 3 3 6
1 6 -5 0 -24 17 -11 27 21 9 30 11 32 48 27 22 -3 92 -5 155 -4 97 1 127 5
188 27 106 37 176 82 259 165 58 58 82 91 117 165 24 50 49 113 55 139 16 70
14 239 -5 318 -18 74 -15 100 13 100 10 1 36 9 58 20 22 11 46 19 53 20 6 0
12 5 12 12 0 6 3 9 6 5 4 -3 18 0 33 7 33 17 197 72 236 80 17 3 73 14 125 25
81 16 131 18 335 15 132 -2 249 -5 260 -7z m-2291 -32 c-4 -8 -8 -15 -10 -15
-2 0 -4 7 -4 15 0 8 4 15 10 15 5 0 7 -7 4 -15z m-14 -29 c0 -2 -8 -10 -17
-17 -16 -13 -17 -12 -4 4 13 16 21 21 21 13z m811 -137 c96 -85 159 -148 159
-160 0 -19 -375 -479 -390 -479 -10 0 -473 437 -478 451 -2 4 24 48 57 96 81
117 86 123 101 123 7 0 43 -27 80 -60 37 -33 75 -60 83 -60 8 0 46 42 83 93
86 118 103 137 126 137 11 0 91 -64 179 -141z m303 128 c4 4 4 -1 0 -10 -3
-10 -7 -17 -8 -15 -1 2 -8 12 -16 23 -14 18 -13 19 1 8 9 -7 19 -10 23 -6z
m-1161 -62 c-3 -9 -8 -14 -10 -11 -3 3 -2 9 2 15 9 16 15 13 8 -4z m-47 -107
c-3 -13 -6 -30 -6 -38 0 -11 -3 -10 -11 4 -9 14 -8 20 1 26 7 4 9 13 6 19 -4
6 -2 11 5 11 7 0 9 -9 5 -22z m-29 -140 c-3 -7 -5 -2 -5 12 0 14 2 19 5 13 2
-7 2 -19 0 -25z m0 -130 c-2 -18 -4 -4 -4 32 0 36 2 50 4 33 2 -18 2 -48 0
-65z m10 -90 c-3 -8 -6 -5 -6 6 -1 11 2 17 5 13 3 -3 4 -12 1 -19z m27 -64 c3
-8 2 -12 -4 -9 -6 3 -10 10 -10 16 0 14 7 11 14 -7z m56 -125 c15 -28 5 -23
-15 7 -9 15 -12 23 -6 20 6 -4 16 -16 21 -27z m90 -119 c8 -15 8 -18 -3 -14
-8 3 -14 11 -14 19 0 20 4 19 17 -5z m85 -78 c-3 -3 -11 0 -18 7 -9 10 -8 11
6 5 10 -3 15 -9 12 -12z m66 -39 c13 -16 12 -17 -3 -4 -10 7 -18 15 -18 17 0
8 8 3 21 -13z m78 -39 c14 -12 -19 -1 -35 12 -18 14 -18 14 6 3 14 -6 27 -13
29 -15z m3508 -426 c-3 -7 -5 -2 -5 12 0 14 2 19 5 13 2 -7 2 -19 0 -25z m-80
-900 c-3 -8 -6 -5 -6 6 -1 11 2 17 5 13 3 -3 4 -12 1 -19z m-197 -386 c0 -5
-7 -9 -15 -9 -8 0 -12 4 -9 9 3 4 9 8 15 8 5 0 9 -4 9 -8z m-2785 -242 c3 -5
1 -10 -4 -10 -6 0 -11 5 -11 10 0 6 2 10 4 10 3 0 8 -4 11 -10z m2459 -115
c-4 -8 -11 -15 -16 -15 -6 0 -5 6 2 15 7 8 14 15 16 15 2 0 1 -7 -2 -15z
m-2128 -172 c-7 -7 -26 7 -26 19 0 6 6 6 15 -2 9 -7 13 -15 11 -17z"/>
<path d="M4258 2398 c-24 -39 -39 -80 -63 -168 -40 -147 -86 -259 -123 -298
-6 -8 -17 -22 -22 -33 -20 -37 -39 -23 -35 26 2 24 6 54 10 65 8 24 -1 26 -21
5 -9 -8 -12 -20 -8 -26 4 -8 3 -9 -4 -5 -12 7 -5 105 9 121 5 5 9 14 9 20 0 5
-9 -1 -19 -14 -10 -13 -29 -24 -42 -25 -15 -1 -40 -19 -67 -48 -34 -37 -44
-56 -48 -90 -10 -106 -16 -140 -33 -190 -10 -29 -21 -98 -25 -152 -4 -55 -14
-117 -23 -138 -14 -35 -14 -48 1 -140 14 -81 16 -133 10 -264 l-7 -164 221 0
c121 0 223 4 226 9 3 4 8 35 11 67 11 109 15 122 72 205 31 46 75 129 99 191
24 60 49 119 56 131 6 12 17 49 24 82 25 124 47 190 89 260 37 64 46 89 70
219 20 106 24 150 17 159 -8 10 -7 26 3 62 17 56 18 68 6 61 -5 -3 -26 8 -46
24 -43 34 -47 36 -43 16 2 -8 -6 -22 -18 -33 -11 -10 -24 -31 -28 -48 -8 -34
-54 -141 -96 -227 -65 -132 -150 -220 -150 -155 0 12 11 60 24 107 13 47 30
126 38 175 10 71 16 89 28 86 45 -12 52 -7 72 57 15 51 17 67 7 78 -20 25 -51
12 -65 -26 -7 -21 -13 -27 -13 -16 -1 18 -2 18 -19 3 -32 -29 -89 8 -67 43 3
5 4 10 2 10 -3 0 -11 -10 -19 -22z m57 -68 c3 -5 1 -10 -4 -10 -6 0 -11 5 -11
10 0 6 2 10 4 10 3 0 8 -4 11 -10z m90 -1 c11 -16 1 -19 -13 -3 -7 8 -8 14 -3
14 5 0 13 -5 16 -11z m-425 -389 c0 -5 -5 -10 -11 -10 -5 0 -7 5 -4 10 3 6 8
10 11 10 2 0 4 -4 4 -10z"/>
<path d="M1465 2264 c-9 -9 -15 -26 -13 -38 3 -18 11 -21 52 -24 35 -2 53 2
67 14 23 21 23 25 4 50 -13 18 -14 18 -9 -6 l6 -25 -21 24 c-12 13 -21 18 -21
12 0 -6 -5 -11 -11 -11 -5 0 -7 5 -4 10 10 17 -32 11 -50 -6z"/>
<path d="M3121 2114 c-1 -11 6 -29 15 -40 8 -10 12 -13 9 -6 -4 8 -11 26 -15
40 -7 22 -8 23 -9 6z"/>
<path d="M4035 2103 c-12 -30 -15 -72 -5 -78 6 -3 11 4 11 17 1 13 3 35 5 51
3 31 -1 35 -11 10z"/>
<path d="M2220 2078 c-11 -18 -20 -39 -20 -45 0 -7 -6 -13 -14 -13 -7 0 -20
-7 -27 -16 -12 -15 -14 -14 -20 7 -7 24 -7 24 -14 3 -8 -25 -48 -50 -64 -39
-7 4 -9 25 -6 58 l6 52 -17 -30 c-9 -16 -28 -43 -40 -58 -24 -29 -31 -71 -15
-96 13 -20 2 -51 -16 -44 -13 5 -13 3 -3 -14 10 -15 10 -30 2 -59 l-10 -39 -1
39 c-1 37 -2 38 -15 21 -8 -11 -13 -22 -11 -25 2 -3 -10 -6 -26 -7 -26 -2 -29
1 -29 30 0 31 0 31 -16 9 -8 -12 -18 -39 -21 -60 -3 -20 -17 -48 -30 -61 -12
-13 -23 -28 -23 -33 0 -5 11 4 25 19 28 32 30 25 11 -31 -11 -33 -15 -36 -23
-22 -7 13 -10 7 -10 -26 0 -24 -5 -54 -12 -66 -12 -23 -13 -23 -27 -5 -12 15
-12 12 1 -18 8 -20 11 -40 7 -43 -3 -4 -7 -19 -8 -34 -1 -15 -2 -27 -3 -27
-10 0 -6 -35 4 -39 16 -6 0 -96 -50 -276 -19 -69 -37 -144 -41 -167 l-7 -43
365 0 c412 0 374 -8 421 86 14 28 48 75 75 105 50 55 89 147 84 196 -2 13 2
33 8 45 7 15 0 11 -20 -12 l-31 -35 27 45 c15 25 34 50 42 57 7 6 9 13 5 16
-16 10 -102 -63 -141 -120 -52 -76 -152 -174 -152 -150 0 33 51 200 80 262
l29 62 208 2 c222 2 242 6 264 54 11 25 -3 77 -21 77 -7 0 -7 -7 0 -22 10 -22
10 -22 -4 -4 -8 10 -19 15 -24 12 -6 -3 -18 -3 -29 1 -15 6 -13 9 12 14 17 4
-52 7 -153 7 -101 0 -186 2 -188 5 -3 3 11 44 30 91 45 108 46 126 6 126 -23
0 -31 5 -36 24 -3 14 -3 34 1 45 5 16 2 21 -13 21 -15 0 -19 -5 -15 -19 3 -11
-3 -27 -14 -38 -10 -10 -20 -28 -21 -38 -2 -11 -13 -30 -23 -41 -11 -12 -19
-25 -17 -30 4 -15 -13 -54 -23 -54 -5 0 -9 -9 -9 -19 0 -33 -33 -61 -82 -70
-51 -9 -60 -7 -51 15 4 12 8 12 22 2 14 -12 15 -11 2 5 -9 12 -11 29 -7 55 4
20 9 52 11 69 3 18 12 61 21 95 8 35 17 90 20 123 3 33 10 62 14 65 5 3 5 12
0 20 -7 12 -12 11 -29 -4 -11 -10 -28 -16 -38 -14 -14 3 -18 13 -18 51 0 26
-1 47 -3 47 -1 0 -11 -15 -22 -32z m-23 -85 c-3 -10 -8 -35 -12 -55 -6 -40
-13 -46 -33 -26 -16 16 -15 3 1 -23 10 -17 9 -22 -3 -32 -9 -8 -14 -25 -12
-47 3 -33 -20 -82 -32 -69 -3 3 -1 28 4 55 6 27 11 56 12 64 1 31 28 123 39
136 17 20 41 18 36 -3z m-172 -10 c-3 -10 -9 -30 -12 -45 -3 -15 -9 -25 -14
-22 -12 7 -11 41 1 65 13 24 35 25 25 2z m261 -20 c-11 -11 -17 4 -9 23 7 18
8 18 11 1 2 -10 1 -21 -2 -24z m-176 -2 c0 -17 -12 -41 -21 -41 -10 0 -12 33
-2 43 9 10 23 9 23 -2z m484 -403 c-3 -4 -11 -5 -19 -1 -21 7 -19 12 4 10 11
0 18 -5 15 -9z m181 5 c-27 -3 -53 -10 -57 -16 -6 -9 -8 -9 -8 0 0 7 -6 10
-13 7 -7 -2 -24 0 -38 5 -18 7 0 9 71 9 52 -1 73 -3 45 -5z"/>
<path d="M3270 2101 c0 -6 4 -13 10 -16 6 -3 7 1 4 9 -7 18 -14 21 -14 7z"/>
<path d="M2520 2086 c0 -8 4 -17 9 -20 5 -4 7 3 4 14 -6 23 -13 26 -13 6z"/>
<path d="M2820 2091 c0 -6 4 -13 10 -16 6 -3 7 1 4 9 -7 18 -14 21 -14 7z"/>
<path d="M2370 2076 c0 -8 4 -17 9 -20 5 -4 7 3 4 14 -6 23 -13 26 -13 6z"/>
<path d="M4070 2079 c0 -5 5 -7 10 -4 6 3 10 8 10 11 0 2 -4 4 -10 4 -5 0 -10
-5 -10 -11z"/>
<path d="M1910 2073 c0 -6 8 -17 18 -24 16 -13 16 -13 2 6 -8 11 -16 22 -17
24 -2 2 -3 0 -3 -6z"/>
<path d="M2670 2076 c0 -2 8 -10 18 -17 15 -13 16 -12 3 4 -13 16 -21 21 -21
13z"/>
<path d="M1760 2060 c0 -5 5 -10 11 -10 5 0 7 5 4 10 -3 6 -8 10 -11 10 -2 0
-4 -4 -4 -10z"/>
<path d="M3190 1948 c0 -9 7 -22 17 -29 15 -13 15 -12 3 11 -17 34 -20 36 -20
18z"/>
<path d="M3340 1955 c0 -5 5 -17 10 -25 5 -8 10 -10 10 -5 0 6 -5 17 -10 25
-5 8 -10 11 -10 5z"/>
<path d="M3490 1951 c0 -6 4 -13 10 -16 6 -3 7 1 4 9 -7 18 -14 21 -14 7z"/>
<path d="M2590 1931 c0 -6 4 -13 10 -16 6 -3 7 1 4 9 -7 18 -14 21 -14 7z"/>
<path d="M2890 1930 c0 -5 5 -10 11 -10 5 0 7 5 4 10 -3 6 -8 10 -11 10 -2 0
-4 -4 -4 -10z"/>
<path d="M3231 1819 c-1 -14 6 -34 15 -45 8 -10 12 -13 8 -5 -4 8 -11 28 -15
45 -6 29 -7 29 -8 5z"/>
<path d="M3081 1794 c0 -11 3 -14 6 -6 3 7 2 16 -1 19 -3 4 -6 -2 -5 -13z"/>
<path d="M3380 1805 c0 -5 5 -17 10 -25 5 -8 10 -10 10 -5 0 6 -5 17 -10 25
-5 8 -10 11 -10 5z"/>
<path d="M2930 1793 c0 -6 8 -17 18 -24 16 -13 16 -13 2 6 -8 11 -16 22 -17
24 -2 2 -3 0 -3 -6z"/>
<path d="M2330 1771 c0 -6 4 -13 10 -16 6 -3 7 1 4 9 -7 18 -14 21 -14 7z"/>
<path d="M1720 1763 c0 -6 8 -17 18 -24 16 -13 16 -13 2 6 -8 11 -16 22 -17
24 -2 2 -3 0 -3 -6z"/>
<path d="M2870 1705 c-7 -9 -11 -17 -9 -20 3 -2 10 5 17 15 14 24 10 26 -8 5z"/>
<path d="M2552 1650 c0 -14 2 -19 5 -12 2 6 2 18 0 25 -3 6 -5 1 -5 -13z"/>
<path d="M2700 1646 c0 -8 4 -17 9 -20 5 -4 7 3 4 14 -6 23 -13 26 -13 6z"/>
<path d="M3000 1654 c0 -6 7 -19 16 -30 14 -18 14 -18 3 6 -14 31 -19 36 -19
24z"/>
<path d="M2860 1631 c0 -6 4 -13 10 -16 6 -3 7 1 4 9 -7 18 -14 21 -14 7z"/>
<path d="M3439 1583 c-13 -16 -12 -17 4 -4 9 7 17 15 17 17 0 8 -8 3 -21 -13z"/>
<path d="M3585 1510 c-3 -6 1 -7 9 -4 18 7 21 14 7 14 -6 0 -13 -4 -16 -10z"/>
<path d="M2950 1481 c0 -6 4 -13 10 -16 6 -3 7 1 4 9 -7 18 -14 21 -14 7z"/>
<path d="M1620 1463 c0 -6 8 -17 18 -24 16 -13 16 -13 2 6 -8 11 -16 22 -17
24 -2 2 -3 0 -3 -6z"/>
<path d="M1290 3321 c0 -15 32 -51 41 -46 17 11 9 30 -16 42 -14 6 -25 8 -25
4z"/>
</g>
</svg>
